<?xml version="1.0" encoding="UTF-8"?>
<svg id="Layer_2" data-name="Layer 2" xmlns="http://www.w3.org/2000/svg" viewBox="0 0 5229.13 1209.16">
  <defs>
    <style>
      .cls-1 {
        fill: #fff;
      }

      .cls-2 {
        fill: #3120d8;
      }
    </style>
  </defs>
  <g id="Layer_1-2" data-name="Layer 1">
    <g>
      <g>
        <g>
          <path class="cls-1" d="M1451.77,179.95h420.49v136.48h-267.42v416.8h-153.07V179.95Z"/>
          <path class="cls-1" d="M1944.19,717.55c-40.82-18.56-72.48-44.69-94.98-78.38-22.5-33.69-33.75-72.54-33.75-116.56s11.25-82.93,33.75-116.74c22.5-33.81,54.16-60,94.98-78.57,40.82-18.56,87.91-27.85,141.27-27.85s100.45,9.29,141.27,27.85c40.82,18.57,72.48,44.76,94.98,78.57,22.5,33.81,33.75,72.73,33.75,116.74s-11.25,82.87-33.75,116.56c-22.5,33.69-54.16,59.82-94.98,78.38-40.82,18.56-87.91,27.85-141.27,27.85s-100.45-9.28-141.27-27.85ZM2148.53,619.99c17.7-8.85,31.23-21.58,40.57-38.18,9.34-16.6,14.02-36.33,14.02-59.2s-4.74-42.66-14.2-59.38c-9.47-16.72-23-29.51-40.57-38.36-17.58-8.85-38.54-13.28-62.89-13.28s-45.37,4.43-63.07,13.28c-17.71,8.85-31.29,21.64-40.76,38.36-9.47,16.72-14.2,36.52-14.2,59.38s4.73,42.6,14.2,59.2c9.46,16.6,23.05,29.32,40.76,38.18s38.73,13.28,63.07,13.28,45.37-4.43,63.07-13.28Z"/>
          <path class="cls-1" d="M2855.06,327.3c31.59,18.57,56.12,44.76,73.59,78.57,17.46,33.81,26.19,72.73,26.19,116.74s-8.73,82.57-26.19,116.37c-17.46,33.81-41.99,60-73.59,78.57-31.6,18.56-67.81,27.85-108.63,27.85-36.88,0-70.45-8.24-100.7-24.71-30.25-16.47-55.58-39.71-75.98-69.71v203.97h-150.86V311.63h150.86v80.78c20.66-29.75,46.04-52.68,76.17-68.79,30.12-16.1,63.63-24.16,100.51-24.16,40.82,0,77.03,9.29,108.63,27.85ZM2753.62,616.11c15.37-9.22,27.35-21.95,35.96-38.18,8.6-16.23,12.91-34.67,12.91-55.33s-4.3-39.16-12.91-55.51c-8.61-16.35-20.6-29.14-35.96-38.36-15.37-9.22-32.89-13.83-52.56-13.83s-39.04,4.61-57.36,13.83c-18.32,9.22-34.43,22.01-48.32,38.36-13.9,16.36-24.41,34.86-31.54,55.51,7.13,20.66,17.64,39.1,31.54,55.33,13.89,16.23,30,28.96,48.32,38.18,18.32,9.22,37.44,13.83,57.36,13.83s37.19-4.61,52.56-13.83Z"/>
          <path class="cls-1" d="M3298.22,422.28c36.64,0,68.98,6.45,97.01,19.36,28.03,12.91,49.73,31.11,65.1,54.59,15.37,23.49,23.05,50.6,23.05,81.33s-7.62,58.22-22.87,81.7c-15.25,23.49-36.7,41.68-64.36,54.59-27.66,12.91-59.57,19.36-95.72,19.36h-279.96v-421.6h149.75v110.66h127.99ZM3273.14,627.36c18.68,0,33.13-4.55,43.34-13.65,10.2-9.09,15.31-21.76,15.31-37.99s-5.11-29.26-15.31-38.36c-10.21-9.09-24.66-13.65-43.34-13.65h-102.91v103.65h102.91Z"/>
          <path class="cls-1" d="M3892.06,478.71l157.13,254.51h-169.67l-83.73-143.85-125.04,143.85h-133.52v-421.6h150.86v234.22l190.33-234.22h159.34l-145.7,167.09Z"/>
          <path class="cls-1" d="M4233.24,593.43l188.48-281.8h193.65v421.6h-148.65v-289.92l-194.02,289.92h-187.75v-421.6h148.28v281.8Z"/>
          <path class="cls-1" d="M4847,593.43l188.48-281.8h193.65v421.6h-148.65v-289.92l-194.02,289.92h-187.75v-421.6h148.28v281.8ZM4835.75,239.15c-31.11-24.71-50.47-60.55-58.09-107.52h115.45c3.69,19.43,11.25,34.3,22.68,44.63,11.43,10.33,26,15.49,43.71,15.49s32.21-5.16,43.52-15.49c11.31-10.33,18.81-25.2,22.5-44.63h115.08c-7.38,46.97-26.62,82.81-57.72,107.52-31.11,24.71-72.24,37.07-123.38,37.07s-92.65-12.36-123.75-37.07Z"/>
        </g>
        <g>
          <path class="cls-1" d="M1557.76,1077.48l43.92-105.89h61.78v144.79h-38.03v-109.85l-47.59,109.85h-40.45l-47.49-109.37v109.37h-38.13v-144.79h61.88l44.11,105.89Z"/>
          <path class="cls-1" d="M1826.59,1006.05l-6.95,55.12,6.95,55.21h-40.93l-2.9-22.3c-5.34,8.11-12,14.38-19.98,18.82-7.98,4.44-16.89,6.66-26.74,6.66-10.68,0-20.16-2.43-28.43-7.29-8.27-4.86-14.69-11.71-19.26-20.56-4.57-8.85-6.85-19-6.85-30.46s2.28-21.7,6.85-30.55c4.57-8.85,10.99-15.7,19.26-20.56,8.27-4.86,17.74-7.29,28.43-7.29,9.78,0,18.69,2.19,26.74,6.56,8.04,4.38,14.74,10.59,20.08,18.63l2.8-22.01h40.93ZM1762.93,1085.74c4.79-2.41,9.01-5.74,12.64-9.99,3.63-4.25,6.35-9.07,8.16-14.48-1.8-5.41-4.52-10.25-8.16-14.53-3.64-4.28-7.85-7.63-12.64-10.04-4.79-2.41-9.8-3.62-15.01-3.62s-9.73,1.21-13.76,3.62c-4.02,2.41-7.16,5.76-9.41,10.04-2.25,4.28-3.38,9.12-3.38,14.53s1.13,10.23,3.38,14.48c2.25,4.25,5.39,7.58,9.41,9.99,4.02,2.41,8.61,3.62,13.76,3.62s10.22-1.21,15.01-3.62Z"/>
          <path class="cls-1" d="M1959.75,1010.15c8.27,4.86,14.69,11.71,19.26,20.56,4.57,8.85,6.85,19.03,6.85,30.55s-2.29,21.61-6.85,30.46c-4.57,8.85-10.99,15.7-19.26,20.56-8.27,4.86-17.75,7.29-28.43,7.29-9.65,0-18.44-2.16-26.35-6.47-7.92-4.31-14.54-10.39-19.88-18.24v53.38h-39.48v-142.19h39.48v21.14c5.41-7.79,12.05-13.79,19.93-18,7.88-4.21,16.65-6.32,26.3-6.32,10.68,0,20.16,2.43,28.43,7.29ZM1933.21,1085.74c4.02-2.41,7.16-5.74,9.41-9.99,2.25-4.25,3.38-9.07,3.38-14.48s-1.13-10.25-3.38-14.53c-2.25-4.28-5.39-7.63-9.41-10.04-4.02-2.41-8.61-3.62-13.75-3.62s-10.22,1.21-15.01,3.62c-4.79,2.41-9.01,5.76-12.65,10.04-3.64,4.28-6.39,9.12-8.25,14.53,1.87,5.41,4.62,10.23,8.25,14.48s7.85,7.58,12.65,9.99c4.79,2.41,9.8,3.62,15.01,3.62s9.73-1.21,13.75-3.62Z"/>
          <path class="cls-1" d="M2095.91,1049.78l41.12,66.61h-44.4l-21.91-37.65-32.72,37.65h-34.94v-110.33h39.48v61.3l49.81-61.3h41.7l-38.13,43.73Z"/>
          <path class="cls-1" d="M2177.09,1072.46c2.7,5.86,7.27,10.35,13.71,13.47,6.43,3.12,14.54,4.68,24.33,4.68,8.11,0,16.18-1.06,24.23-3.19,8.04-2.12,15.38-5.15,22.01-9.07v25.1c-7.72,5.21-16.44,9.2-26.16,11.97-9.72,2.77-20.14,4.15-31.28,4.15-13.32,0-25.26-2.46-35.81-7.38-10.55-4.92-18.82-11.82-24.81-20.71-5.98-8.88-8.98-19.08-8.98-30.6s2.88-21.4,8.64-30.21c5.76-8.82,13.72-15.65,23.89-20.51,10.17-4.86,21.62-7.29,34.36-7.29s24.13,2.85,33.59,8.54,16.71,13.77,21.77,24.23c5.05,10.46,7.58,22.73,7.58,36.83h-87.07ZM2184.95,1035.54c-4.67,3.25-7.87,7.64-9.6,13.18h52.13c-1.8-5.79-4.88-10.25-9.22-13.37-4.34-3.12-9.73-4.68-16.17-4.68-6.76,0-12.47,1.63-17.13,4.88Z"/>
          <path class="cls-1" d="M2268.98,1006.05h123.27v29.83h-41.89v80.5h-39.48v-80.5h-41.89v-29.83Z"/>
          <path class="cls-1" d="M2444.76,1079.8l49.33-73.75h50.68v110.33h-38.9v-75.87l-50.77,75.87h-49.13v-110.33h38.8v73.75Z"/>
          <path class="cls-1" d="M2657.89,1045.34v-39.29h39.38v110.33h-39.38v-41.7h-51.93v41.7h-39.38v-110.33h39.38v39.29h51.93Z"/>
          <path class="cls-1" d="M2719.09,1006.05h96.05v29.83h-56.57v80.5h-39.48v-110.33Z"/>
          <path class="cls-1" d="M2910.22,1079.8l49.33-73.75h50.68v110.33h-38.9v-75.87l-50.77,75.87h-49.13v-110.33h38.8v73.75Z"/>
          <path class="cls-1" d="M3172.68,1049.78l41.12,66.61h-44.4l-21.91-37.65-32.72,37.65h-34.94v-110.33h39.48v61.3l49.81-61.3h41.7l-38.13,43.73Z"/>
          <path class="cls-1" d="M3261.97,1079.8l49.33-73.75h50.68v110.33h-38.9v-75.87l-50.77,75.87h-49.13v-110.33h38.8v73.75Z"/>
          <path class="cls-1" d="M3494.55,1022.17c8.46,4.18,15.03,10.07,19.69,17.67,4.67,7.59,7,16.35,7,26.26,0,10.68-2.78,20.06-8.35,28.14-5.57,8.08-13.45,14.32-23.65,18.73-10.2,4.41-22.03,6.61-35.47,6.61-15.51,0-28.8-2.86-39.87-8.59-11.07-5.73-19.5-14.06-25.29-25-5.79-10.94-8.69-24.04-8.69-39.29s2.81-28.2,8.45-39.24c5.63-11.04,13.88-19.72,24.76-26.06,10.87-6.34,24.1-10.15,39.67-11.44,13.32-1.09,23.41-2.01,30.26-2.75,6.85-.74,12.27-1.5,16.26-2.27,3.99-.77,7.88-1.8,11.68-3.09v32.24c-4.63,1.67-10.71,2.98-18.24,3.91-7.53.93-18.31,1.66-32.34,2.17-16.02.71-27.93,4.7-35.72,11.97-7.79,7.27-11.84,17.99-12.16,32.14,2.57-5.79,6.43-10.83,11.58-15.11,5.15-4.28,11.26-7.56,18.34-9.85,7.08-2.28,14.7-3.43,22.88-3.43,11,0,20.74,2.09,29.2,6.27ZM3468.78,1087.33c4.02-1.93,7.13-4.68,9.32-8.25,2.19-3.57,3.28-7.71,3.28-12.4s-1.09-8.82-3.28-12.36c-2.19-3.54-5.29-6.27-9.32-8.21-4.02-1.93-8.74-2.9-14.14-2.9-7.53,0-14.33,1.98-20.42,5.94-6.08,3.96-10.63,9.38-13.66,16.26,1.16,4.96,3.35,9.3,6.56,13.03,3.22,3.73,7.21,6.63,11.97,8.69,4.76,2.06,9.94,3.09,15.54,3.09s10.12-.97,14.14-2.9Z"/>
          <path class="cls-1" d="M3575.68,1072.46c2.7,5.86,7.27,10.35,13.71,13.47,6.43,3.12,14.54,4.68,24.33,4.68,8.11,0,16.18-1.06,24.23-3.19,8.04-2.12,15.38-5.15,22.01-9.07v25.1c-7.72,5.21-16.44,9.2-26.16,11.97-9.72,2.77-20.14,4.15-31.28,4.15-13.32,0-25.26-2.46-35.81-7.38-10.55-4.92-18.82-11.82-24.81-20.71-5.98-8.88-8.98-19.08-8.98-30.6s2.88-21.4,8.64-30.21c5.76-8.82,13.72-15.65,23.89-20.51,10.17-4.86,21.62-7.29,34.36-7.29s24.13,2.85,33.59,8.54,16.71,13.77,21.77,24.23c5.05,10.46,7.58,22.73,7.58,36.83h-87.07ZM3583.55,1035.54c-4.67,3.25-7.87,7.64-9.6,13.18h52.13c-1.8-5.79-4.88-10.25-9.22-13.37-4.34-3.12-9.73-4.68-16.17-4.68-6.76,0-12.47,1.63-17.13,4.88Z"/>
          <path class="cls-1" d="M3793.89,1010.15c8.27,4.86,14.69,11.71,19.26,20.56,4.57,8.85,6.85,19.03,6.85,30.55s-2.29,21.61-6.85,30.46c-4.57,8.85-10.99,15.7-19.26,20.56-8.27,4.86-17.75,7.29-28.43,7.29-9.65,0-18.44-2.16-26.35-6.47-7.92-4.31-14.54-10.39-19.88-18.24v53.38h-39.48v-142.19h39.48v21.14c5.41-7.79,12.05-13.79,19.93-18,7.88-4.21,16.65-6.32,26.3-6.32,10.68,0,20.16,2.43,28.43,7.29ZM3767.34,1085.74c4.02-2.41,7.16-5.74,9.41-9.99,2.25-4.25,3.38-9.07,3.38-14.48s-1.13-10.25-3.38-14.53c-2.25-4.28-5.39-7.63-9.41-10.04-4.02-2.41-8.61-3.62-13.75-3.62s-10.22,1.21-15.01,3.62c-4.79,2.41-9.01,5.76-12.65,10.04-3.64,4.28-6.39,9.12-8.25,14.53,1.87,5.41,4.62,10.23,8.25,14.48s7.85,7.58,12.65,9.99c4.79,2.41,9.8,3.62,15.01,3.62s9.73-1.21,13.75-3.62Z"/>
          <path class="cls-1" d="M3930.04,1049.78l41.12,66.61h-44.4l-21.91-37.65-32.72,37.65h-34.94v-110.33h39.48v61.3l49.81-61.3h41.7l-38.13,43.73Z"/>
          <path class="cls-1" d="M4118.95,1006.05v110.33h-39.48v-80.89h-42.38c.64,9.46.97,16.83.97,22.11,0,14.42-1.46,26.1-4.39,35.04-2.93,8.95-7.48,15.53-13.66,19.74-6.18,4.21-14.25,6.32-24.23,6.32-4.44,0-8.56-.45-12.36-1.35-3.8-.9-7.53-2.35-11.2-4.34v-28.09c4.63,1.74,8.91,2.61,12.84,2.61,4.18,0,7.51-1.19,9.99-3.57,2.48-2.38,4.3-6.14,5.45-11.29,1.16-5.15,1.74-12,1.74-20.56,0-12.36-1-27.7-2.99-46.04h119.7Z"/>
          <path class="cls-1" d="M4237.77,1006.05h41.99l-53,112.46c-5.41,11.52-12.45,19.88-21.14,25.1-8.69,5.21-18.24,7.82-28.67,7.82-8.04,0-15.24-.98-21.57-2.94-6.34-1.96-12.5-5.1-18.49-9.41v-27.32c6.11,3.86,11.81,6.63,17.08,8.3,5.28,1.67,11.07,2.51,17.38,2.51,5.73,0,10.55-1.22,14.48-3.67,3.92-2.45,7.14-6.63,9.65-12.55l.1-.29h-17.28l-46.91-100h43.53l31.08,75.29,31.76-75.29Z"/>
          <path class="cls-1" d="M4397.86,1022.17c8.46,4.18,15.03,10.07,19.69,17.67,4.67,7.59,7,16.35,7,26.26,0,10.68-2.78,20.06-8.35,28.14-5.57,8.08-13.45,14.32-23.65,18.73-10.2,4.41-22.03,6.61-35.47,6.61-15.51,0-28.8-2.86-39.87-8.59-11.07-5.73-19.5-14.06-25.29-25-5.79-10.94-8.69-24.04-8.69-39.29s2.81-28.2,8.45-39.24c5.63-11.04,13.88-19.72,24.76-26.06,10.87-6.34,24.1-10.15,39.67-11.44,13.32-1.09,23.41-2.01,30.26-2.75,6.85-.74,12.27-1.5,16.26-2.27,3.99-.77,7.88-1.8,11.68-3.09v32.24c-4.63,1.67-10.71,2.98-18.24,3.91-7.53.93-18.31,1.66-32.34,2.17-16.02.71-27.93,4.7-35.72,11.97-7.79,7.27-11.84,17.99-12.16,32.14,2.57-5.79,6.43-10.83,11.58-15.11,5.15-4.28,11.26-7.56,18.34-9.85,7.08-2.28,14.7-3.43,22.88-3.43,11,0,20.74,2.09,29.2,6.27ZM4372.09,1087.33c4.02-1.93,7.13-4.68,9.32-8.25,2.19-3.57,3.28-7.71,3.28-12.4s-1.09-8.82-3.28-12.36c-2.19-3.54-5.29-6.27-9.32-8.21-4.02-1.93-8.74-2.9-14.14-2.9-7.53,0-14.33,1.98-20.42,5.94-6.08,3.96-10.63,9.38-13.66,16.26,1.16,4.96,3.35,9.3,6.56,13.03,3.22,3.73,7.21,6.63,11.97,8.69,4.76,2.06,9.94,3.09,15.54,3.09s10.12-.97,14.14-2.9Z"/>
          <path class="cls-1" d="M4514.04,1035.01c9.59,0,18.05,1.69,25.39,5.07,7.34,3.38,13.01,8.14,17.04,14.29,4.02,6.15,6.03,13.24,6.03,21.28s-2,15.24-5.98,21.38c-3.99,6.15-9.6,10.91-16.84,14.29-7.24,3.38-15.59,5.07-25.05,5.07h-73.27v-110.33h39.19v28.96h33.5ZM4507.47,1088.68c4.89,0,8.67-1.19,11.34-3.57,2.67-2.38,4.01-5.7,4.01-9.94s-1.34-7.66-4.01-10.04c-2.67-2.38-6.45-3.57-11.34-3.57h-26.93v27.12h26.93ZM4572.24,1116.38v-110.33h39.48v110.33h-39.48Z"/>
        </g>
      </g>
      <g>
        <path class="cls-1" d="M593.38,1.92c219.06-17.05,418.96,80.64,545.93,238.56,20.38,25.34-15.02,57.29-38.19,34.47-94.6-93.18-220.17-155.21-358.94-166.54C431.08,78.52,144.18,307.82,106.28,618.22c-21.69,158.16,23.88,310.76,113.8,429.73,20.4,26.99-17.42,59.4-40.86,35C57.6,956.28-12.6,780.57,1.88,592.02,24.28,279.22,280.18,22.62,593.38,1.92Z"/>
        <g>
          <path class="cls-2" d="M544.56,514.88c-87.04,22.28-213.87,76.23-280.56,136.68-9.47,18.16,52.85,173.32,70.88,181.07,88.04-68.8,185.09-133.04,274.7-198.32-13.92-30.71-33.79-68.17-43.1-101.91-5.41-16.88-.71-22.61-21.92-17.52Z"/>
          <path class="cls-2" d="M465.4,998.12c3.96,3.28,7.79,5.72,12.54,2.21,74.55-65.03,142.81-137.67,208.46-211.58,39.15-37.54,20.47-30.15-10.11-64.28-15.6-15.74-31.77-41.81-45.43-57.7-5.04-3.39-9.96.45-14.17,2.8-89.44,56.81-179.35,119.35-260.89,187.03-17.89,15.99,93.6,129.56,109.6,141.53Z"/>
          <path class="cls-2" d="M662.96,1118.54c72.48-59.34,151.44-182.43,182.33-270.23-.87-1.61-2.15-2.5-3.58-3.53-35.89-16.1-71.39-37.16-102.72-61.59-8.64-7.57-68.28,72.49-81.54,83.17-49.32,54.7-107.13,103.4-157.2,156.79-.45,1.3-.4,1.88,0,3.17,23.81,25.45,129.88,93.24,162.72,92.22Z"/>
          <path class="cls-2" d="M989.09,876.1c-26.39-.31-51.8-2.73-77.62-8.29-6.1-1.31-28.34-8.52-32.17-7.59-3.69.9-5.17,3.87-6.99,6.94-43.91,92.45-96.88,185.32-171.3,257.12-24.74,20.73,110.61,31.03,121.89,29.84,92.18,12.58,159.76-194.86,170.07-267.37.35-4.46.73-8.2-3.87-10.66Z"/>
          <path class="cls-2" d="M510.07,493.95c10.75-4.84,42.14-6.55,43.82-18.78-5.72-33.88-3.91-70.95.89-104.26-.19-2.46-.88-4.59-3.09-5.93-67.15-6.12-276.06,32.54-294.53,107.04-6.27,23.76-15.04,126.23.47,142.54,76.92-51.17,163.36-93.58,252.46-120.61Z"/>
          <path class="cls-2" d="M288.99,397.41c82.09-46.22,178.64-62.07,272.03-64.05,6.06-3.1,9.07-17.09,12.15-23.6,5.48-11.6,11.51-22.84,18.36-33.71,4.44-7.05,18.68-18.86,6.32-23.64-124.39-24.78-258.63,20.95-313.76,142.39.48,2.01,2.99,2.91,4.89,2.62Z"/>
          <path class="cls-2" d="M1109.07,843.86c-12.13,3.12-40.74,19.12-55.71,22-6.13,1.85-23.7,4.17-27.1,8.33-2.85,3.49-8.83,42.18-10.67,50.2-15.71,74.77-49.54,149.07-94.55,210.1-.25,1.11-.61,2.27.59,3.04,128.08-31.91,199.71-164.64,189.83-290.77-.6-1.16-1.17-2.27-2.4-2.9Z"/>
          <path class="cls-2" d="M669.21,485.8c-20.04,3.6-48.7,7.89-67.42,14.19-8.17,2.75-10.67,3.1-9.31,12.81,3.08,14.62,32.08,104.47,49.3,104.3,82.55-49.09,164.89-98.67,250.87-141.51,1.85-1.01,5.67-4.37,3.15-6.47-75.35-5.4-152.28,4.25-226.59,16.68Z"/>
          <path class="cls-2" d="M865.63,808.36c36.39-83.28,64.6-184.25,76.24-274.38.14-2.42,1.09-8.04-1.39-9.38-1.64-.89-3.63,1.08-4.71,2.25-52.41,75.6-113.24,145.05-170.11,217.22-7.93,10.11-10.77,11.8,0,21.14,16.36,14.21,66.59,45.23,87.02,51.31,8.86,2.63,9.65-1.42,12.96-8.16Z"/>
          <path class="cls-2" d="M445.78,1023.15c-.84-6.55-20.95-21.62-26.7-27.44-32.57-32.67-62.6-70.95-88.68-108.61-4.44-3.9-8.5-1.17-12.39,2.01-17.06,13.97-48.73,46.91-59.46,65.83-6.65,11.72-5.77,13.12.96,24.3,18.14,30.17,58.74,77.63,85.95,99.57,18.58,16.03,76.52-32.3,92.5-44.71,3.06-2.76,8.36-6.74,7.82-10.96Z"/>
          <path class="cls-2" d="M677.07,678.22c15.48,19.43,33.22,36.62,50.94,54.05,6.21,4.27,15.02-7.34,18.88-11.72,53.15-60.31,114.06-136.36,158.58-203.04,1.94-2.91,9.57-12.5,7.36-15.46l-2.56-1.02c-85.27,43.75-172.76,89.85-251.99,143.44-4.78,7.38,14.42,26.86,18.79,33.75Z"/>
          <path class="cls-2" d="M920.09,838.8c14.95,1.93,72.87,16.41,79.57-.66,8.94-89.1,6.94-212.04-25.88-295.93-1.95,1.39-2.52,2.99-3.29,5.09-15.85,94.21-42.28,189.96-79.41,278.69.15,7.86,22.38,11.33,29,12.81Z"/>
          <path class="cls-2" d="M585.12,373.26c-3.83,13.41-10.53,90.04,2.52,97.77,74.44-13.55,152.45-30.21,228.95-32.72,17.66-2,50.36,4.7,63.88-3.5-1.78-2.04-3.54-3.7-5.87-5.12-80.71-35.31-178.34-59.36-266.55-64.29-10.51-.5-19.28-3.77-22.93,7.86Z"/>
          <path class="cls-2" d="M305.5,859.3c4.23-5.33,1.99-7.43-.41-12.54-25.87-52.05-52.97-103.47-67.43-160.72-.8-1.4-2.1-3.01-3.53-3.71-3.13-1.51-9,4.77-10.97,6.85-61.64,65-39.58,135.39-7.83,208.53,2.71,6.24,12.06,28.5,15.79,32.07,6.67,6.38,15.53-11.35,19.4-15.6,16.52-18.13,40.27-36.35,54.98-54.87Z"/>
          <path class="cls-2" d="M625.37,1139.54c-39.71-18.69-82.02-41.17-117.63-68.05-10.59-6.03-28.56-29.12-39.98-22.87-18.61,15.29-37.83,29.65-58.01,42.75-4.59,2.98-23.67,12.33-24.4,16.45,1.97,5.12,8.23,8.85,12.64,12.08,65.07,40.5,130.9,85.68,206.18,42.01,6.45-3.45,31.6-14.58,21.2-22.36Z"/>
          <path class="cls-2" d="M1036.9,838.82c16.88-3.13,63.47-20.97,70.86-36.73-8.26-85.68-45.44-178.58-93.59-249.09-.62-.35-2.53-.67-2.42.56l-.61,3.16c21.25,90.86,27.26,184.68,19.4,277.53.4,3.39,3.26,4.49,6.36,4.58Z"/>
          <path class="cls-2" d="M863.63,380.79c-60.6-49.02-145.4-103.24-222.65-115.68-12.26,6.13-46.36,55.27-41.27,68.66,91.26,9.02,186.73,26.34,272.54,62.13,11.37,1.61-5.8-12.8-8.62-15.11Z"/>
          <path class="cls-2" d="M677.35,236.8c-1.15,2.08-.31,4.76,1.97,5.65,80.64,27.66,153.47,73.41,219.21,127.28l2.16-2.34c-34.85-60.99-91.19-123.75-155.44-154.76-9.63-1.96-63.49,16.21-67.9,24.17Z"/>
          <path class="cls-2" d="M1173.06,708.8c-19.34-65.53-75.48-134.68-128.74-174.34l-2.15,2.27c43.05,72.95,76.99,151.35,92.64,234.87,10.3,10.05,39.36-54.3,38.25-62.8Z"/>
          <path class="cls-2" d="M844.02,244.63c39.69,36.43,68.85,83.94,98.4,128.24,6.73-3.58-1.49-27.67-1.93-34.88-18.26-75.11-36.1-123.24-122.33-127.81-4.37-.18-12.91-.88-7.92,5.5,6.39,8.18,25.09,20.66,33.79,28.95Z"/>
          <path class="cls-2" d="M703.73,1167.67c-9.08-2.35-33.36-12.77-40.77-8.55-8.33,4.75-17.93,13.42-26.65,18.96-9.88,7.04-28.49,11.71-33.99,21.07,1.15,1.99,2.99,2.56,4.99,3.28,58.41,8.79,143.55,13.59,195.58-15.82-10.89-8.31-36.4-4.97-51.34-8.4-16.04-2.7-32.08-6.46-47.82-10.54Z"/>
          <path class="cls-2" d="M1053.35,491.91c-11.38-2.05-4.84,4.73,0,9.21,49.66,41.68,94.38,88.56,126.94,145.46l4.51-.45c3.38-38.02,3.31-80.66-32.67-105.41-20.74-17.46-72.13-44-98.78-48.81Z"/>
          <path class="cls-2" d="M226.55,639.79c-6.11-42.29-8.92-87.1-5.68-129.35-3.88-14.78-16.27,18.12-18.87,21.95-19.84,47.61-29.45,110.58-27.54,161.49.68,1.41,1.65,2.52,2.82,3.53,8.42-7.14,13.48-17.31,20.71-25.48,7.12-8.04,26.32-22.85,28.56-32.14Z"/>
          <path class="cls-2" d="M1056.48,461.04c22.45,6.94,46.48,15.2,67.42,25.88,13.26,5.26,49.71,37.49,32.09,1.6-7.98-18.52-16.5-40.31-28.9-56.08-22.78-8.84-59.35,5.02-82.37,11.36-32.4,8.98-2.99,13.86,11.76,17.25Z"/>
          <path class="cls-2" d="M1004.95,421.13l2.11,2.05s95-25.55,95.01-25.55c1.19-14.1-41.15-53.27-51.85-65.56-8.85-5.71-12.32,15.78-14.62,21.6-8.71,22.09-19.31,43.29-30.41,64.28l-.23,3.18Z"/>
          <path class="cls-2" d="M553.96,217.23c10.61.7,21.6,1.79,32.14,3.22,48.85,9.42,39.03,14.35,81.53-14.17,6.13-3.93,34.24-11.47,15.68-17.29-48.85-12.34-126.89,3.22-170.5,25.51,7.66,5.92,30.06,1.16,41.15,2.72Z"/>
          <path class="cls-2" d="M978.34,389.73c.48,1.71.47,3.54,2.88,3.18,14.2-11.71,32.25-62.72,34.46-80.79.71-9.16-.21-10.97-7.03-17.32-5.52-5.15-53.78-39.27-57.61-38.58-7.86,3.72,5.71,23.88,7.22,30.82,12.14,32.08,15.33,69.62,20.08,102.7Z"/>
          <path class="cls-2" d="M1184.31,768.53c-6.85-1-12.81,16.04-17.46,21.02-8.04,10.4-19.04,18.76-25.56,29.79.49,26.69,1.47,53.34-.95,79.96-.49,5.36-6.15,37.69-3.89,39.18,2.47.45,3-.61,4.34-2.28,22.38-38.51,57.77-124.68,43.52-167.67Z"/>
        </g>
      </g>
    </g>
  </g>
</svg>